<svg version="1.1" id="Layer_1" xmlns="http://www.w3.org/2000/svg" xmlns:xlink="http://www.w3.org/1999/xlink" x="0px" y="0px"
	 width="100%" viewBox="0 0 272 272" enable-background="new 0 0 272 272" xml:space="preserve">
<path fill="#000000" opacity="1.000000" stroke="none"
	d="
M156.034302,209.968689
	C152.823090,225.435974 139.212677,230.967804 123.376228,226.881226
	C106.566849,222.543610 92.167015,213.783844 78.405899,203.667297
	C74.246368,200.609421 70.090164,197.546707 65.907234,194.521072
	C61.762119,191.522781 60.448780,187.602875 62.552616,184.334351
	C64.716042,180.973267 69.145531,180.643311 73.552574,183.902084
	C83.059166,190.931732 92.327438,198.284973 102.572609,204.267288
	C111.423103,209.435211 120.820038,213.130493 130.883759,215.087265
	C138.147827,216.499680 142.620102,212.937027 142.644852,205.657867
	C142.689056,192.664047 142.639374,179.669907 142.671921,166.676010
	C142.690002,159.458237 144.390060,157.746704 151.390121,157.682541
	C158.647446,157.616028 159.019562,157.315033 157.599152,150.342361
	C154.215286,133.731400 150.992020,117.078651 147.141464,100.574005
	C141.428406,76.086189 127.683723,63.426876 102.836853,60.684898
	C90.486023,59.321922 77.884315,59.225483 65.608658,62.515995
	C47.902012,67.262299 37.100651,78.842056 32.220074,96.266190
	C29.045412,107.600052 30.218334,118.991570 31.670197,130.422028
	C33.992275,148.703644 36.144501,167.006927 38.347019,185.303635
	C39.776264,197.176651 41.143860,209.057114 42.586246,220.928513
	C43.214001,226.095139 41.577900,228.919601 37.477139,229.470856
	C33.332081,230.028061 30.467918,227.704941 29.862473,222.804276
	C28.375328,210.766891 27.102203,198.703232 25.671396,186.658646
	C23.202349,165.874146 20.806280,145.079758 18.146961,124.319336
	C14.631152,96.872566 24.031376,67.071350 51.509220,54.031250
	C58.191723,50.859951 65.291519,48.948498 72.589241,48.256161
	C88.872536,46.711361 105.204094,46.051785 120.961700,51.636131
	C140.283157,58.483475 152.765411,72.310669 158.025360,91.782227
	C163.175125,110.845848 167.038788,130.269577 171.058273,149.620117
	C172.883591,158.407547 171.513596,168.202545 158.883469,170.225433
	C155.717056,170.732574 156.008499,172.980545 156.001953,175.104813
	C155.967041,186.431793 155.983978,197.758957 155.992737,209.541931
	C156.002487,209.997833 156.034302,209.968689 156.034302,209.968689
z"/>
<path fill="#000000" opacity="1.000000" stroke="none"
	d="
M155.986603,210.012390
	C162.061188,211.697464 168.111053,213.538818 174.251724,214.997971
	C183.179962,217.119507 187.762299,213.483749 187.770477,204.546280
	C187.781754,192.213226 187.744873,179.880112 187.767014,167.547089
	C187.781235,159.619278 189.653061,157.723938 197.359283,157.663345
	C203.721878,157.613312 204.854599,156.569885 203.511353,150.279953
	C199.553253,131.745804 196.778244,112.909302 191.311554,94.759834
	C186.604553,79.132545 176.605698,67.678413 160.526398,62.459694
	C150.749023,59.286339 150.530838,58.916138 152.292679,48.206295
	C154.771591,46.752655 157.154968,48.212086 159.437439,48.796421
	C182.214615,54.627586 196.836243,69.182137 203.506073,91.469788
	C209.277542,110.755516 212.742935,130.626526 216.979294,150.285187
	C219.472260,161.853668 213.877213,169.978058 204.061249,170.271255
	C201.907761,170.335587 201.174881,171.592804 201.176117,173.527695
	C201.183197,184.526779 201.226547,195.526031 201.174301,206.524826
	C201.162521,209.004257 202.553772,210.015854 204.601700,210.772614
	C210.081543,212.797577 215.659348,214.505966 221.418350,215.445724
	C228.818741,216.653320 233.537338,212.759125 233.530594,205.353836
	C233.519974,193.692642 233.976593,182.026138 233.223358,170.367371
	C233.084991,168.225693 233.450027,166.052582 233.566620,163.893097
	C233.797714,159.612823 236.067657,157.564819 240.331879,157.674164
	C240.998062,157.691254 241.665131,157.677933 242.331757,157.673935
	C249.763397,157.629425 250.181152,157.190323 248.683548,149.932632
	C244.953796,131.857590 241.572693,113.688217 236.664032,95.894012
	C231.805130,78.280197 221.031708,66.025360 202.756012,61.307579
	C198.384232,60.179028 195.873795,52.245705 198.718399,48.762020
	C200.197235,46.950947 202.040726,47.943535 203.779648,48.354954
	C229.139420,54.354858 243.867340,70.906151 249.943909,95.590836
	C254.312836,113.338684 258.351379,131.180344 261.977570,149.093445
	C263.870361,158.443741 262.264587,169.151550 248.835800,170.312576
	C245.829926,170.572479 246.347961,172.965591 246.340240,174.877289
	C246.301178,184.543579 245.869736,194.236298 246.425232,203.870773
	C247.385147,220.519455 235.235291,230.881805 217.295563,228.025085
	C215.329727,227.712051 213.388977,227.204849 211.461365,226.694244
	C201.043762,223.934662 201.046448,223.924515 200.705093,213.224884
	C193.959320,226.417526 184.793076,230.656784 169.948410,227.456039
	C169.297729,227.315765 168.611725,227.304596 167.982040,227.106537
	C154.046463,222.723175 155.713348,225.884338 155.957611,210.430206
	C156.034302,209.968689 156.002487,209.997833 155.986603,210.012390
z"/>
</svg>